<svg width="154" height="120" viewBox="0 0 154 120" fill="none" xmlns="http://www.w3.org/2000/svg">
<rect y="35" width="154" height="50" rx="25" fill="#FEF056"/>
<path d="M66.82 60.44C67.1667 60.44 67.4533 60.56 67.68 60.8C67.9067 61.0267 68.02 61.3133 68.02 61.66V65.9C68.02 66.3667 67.8133 66.7267 67.4 66.98C66.0933 67.7933 64.66 68.2 63.1 68.2C61.78 68.2 60.56 67.88 59.44 67.24C58.32 66.5867 57.4333 65.7133 56.78 64.62C56.1267 63.5133 55.8 62.3067 55.8 61C55.8 59.6933 56.1267 58.4933 56.78 57.4C57.4333 56.2933 58.32 55.42 59.44 54.78C60.56 54.1267 61.78 53.8 63.1 53.8C64.42 53.8 65.5667 54.0667 66.54 54.6C66.74 54.7067 66.8867 54.8467 66.98 55.02C67.0867 55.1933 67.14 55.38 67.14 55.58C67.14 55.9133 67.0267 56.2067 66.8 56.46C66.5867 56.7 66.32 56.82 66 56.82C65.8 56.82 65.58 56.7667 65.34 56.66C64.62 56.3533 63.8733 56.2 63.1 56.2C62.2467 56.2 61.46 56.42 60.74 56.86C60.02 57.2867 59.4467 57.8667 59.02 58.6C58.6067 59.3333 58.4 60.1333 58.4 61C58.4 61.8667 58.6067 62.6667 59.02 63.4C59.4467 64.1333 60.02 64.72 60.74 65.16C61.46 65.5867 62.2467 65.8 63.1 65.8C63.4733 65.8 63.8733 65.7667 64.3 65.7C64.7267 65.6333 65.1 65.5467 65.42 65.44V62.84H63.54C63.1933 62.84 62.9 62.7267 62.66 62.5C62.4333 62.2733 62.32 61.9867 62.32 61.64C62.32 61.2933 62.4333 61.0067 62.66 60.78C62.9 60.5533 63.1933 60.44 63.54 60.44H66.82ZM80.5058 62.66C80.5058 63.7267 80.2658 64.6867 79.7858 65.54C79.3058 66.38 78.6458 67.0333 77.8058 67.5C76.9791 67.9667 76.0658 68.2 75.0658 68.2C74.0524 68.2 73.1324 67.9667 72.3058 67.5C71.4791 67.0333 70.8258 66.38 70.3458 65.54C69.8658 64.6867 69.6258 63.7267 69.6258 62.66C69.6258 61.5933 69.8658 60.64 70.3458 59.8C70.8258 58.9467 71.4791 58.2867 72.3058 57.82C73.1324 57.34 74.0524 57.1 75.0658 57.1C76.0658 57.1 76.9791 57.34 77.8058 57.82C78.6458 58.2867 79.3058 58.9467 79.7858 59.8C80.2658 60.64 80.5058 61.5933 80.5058 62.66ZM78.1058 62.66C78.1058 62.0067 77.9658 61.4267 77.6858 60.92C77.4191 60.4 77.0524 60 76.5858 59.72C76.1324 59.44 75.6258 59.3 75.0658 59.3C74.5058 59.3 73.9924 59.44 73.5258 59.72C73.0724 60 72.7058 60.4 72.4258 60.92C72.1591 61.4267 72.0258 62.0067 72.0258 62.66C72.0258 63.3133 72.1591 63.8933 72.4258 64.4C72.7058 64.9067 73.0724 65.3 73.5258 65.58C73.9924 65.86 74.5058 66 75.0658 66C75.6258 66 76.1324 65.86 76.5858 65.58C77.0524 65.3 77.4191 64.9067 77.6858 64.4C77.9658 63.8933 78.1058 63.3133 78.1058 62.66ZM96.3364 62.08C96.4964 62.1733 96.6164 62.3067 96.6964 62.48C96.7764 62.64 96.8164 62.8133 96.8164 63C96.8164 63.2 96.7764 63.38 96.6964 63.54C96.6164 63.7 96.4964 63.8267 96.3364 63.92L89.8364 67.66C89.4497 67.8867 89.1431 68 88.9164 68C88.6497 68 88.3964 67.8733 88.1564 67.62C87.9297 67.3533 87.8164 67.08 87.8164 66.8C87.8164 66.4933 87.9631 66.2533 88.2564 66.08L93.5764 63L88.2764 59.84C87.9831 59.68 87.8364 59.42 87.8364 59.06C87.8364 58.7533 87.9431 58.4733 88.1564 58.22C88.3831 57.9667 88.6097 57.84 88.8364 57.84C88.9697 57.84 89.1231 57.8867 89.2964 57.98C89.4697 58.06 89.6497 58.1533 89.8364 58.26L96.3364 62.08Z" fill="black"/>
</svg>
